<svg width="50" height="70" viewBox="0 0 70 100" fill="none" xmlns="http://www.w3.org/2000/svg">
<path d="M58.3333 83.3333H46.6667V66.6667H58.3333V83.3333ZM40.8333 41.6667H29.1667V58.3333H40.8333V41.6667ZM58.3333 41.6667H46.6667V58.3333H58.3333V41.6667ZM23.3333 66.6667H11.6667V83.3333H23.3333V66.6667ZM40.8333 66.6667H29.1667V83.3333H40.8333V66.6667ZM23.3333 41.6667H11.6667V58.3333H23.3333V41.6667ZM70 8.33333V100H0V8.33333H8.75V12.5C8.75 17.0958 11.3663 20.8333 14.5833 20.8333C17.8004 20.8333 20.4167 17.0958 20.4167 12.5V8.33333H49.5833V12.5C49.5833 17.0958 52.1996 20.8333 55.4167 20.8333C58.6338 20.8333 61.25 17.0958 61.25 12.5V8.33333H70ZM64.1667 33.3333H5.83333V91.6667H64.1667V33.3333ZM58.3333 4.16667C58.3333 1.86667 57.0296 0 55.4167 0C53.8038 0 52.5 1.86667 52.5 4.16667V12.5C52.5 14.8 53.8038 16.6667 55.4167 16.6667C57.0296 16.6667 58.3333 14.8 58.3333 12.5V4.16667ZM17.5 12.5C17.5 14.8 16.1963 16.6667 14.5833 16.6667C12.9704 16.6667 11.6667 14.8 11.6667 12.5V4.16667C11.6667 1.86667 12.9704 0 14.5833 0C16.1963 0 17.5 1.86667 17.5 4.16667V12.5Z" fill="#B4877B"/>
</svg>
