<svg width="70" height="100" viewBox="0 0 225 233" fill="none" xmlns="http://www.w3.org/2000/svg">
<g clip-path="url(#clip0)">
<path d="M131.25 184.458H93.7503C91.1628 184.458 89.0628 186.633 89.0628 189.312C89.0628 191.992 91.1628 194.167 93.7503 194.167H131.25C133.838 194.167 135.938 191.992 135.938 189.312C135.938 186.633 133.838 184.458 131.25 184.458ZM131.25 203.875H93.7503C91.1628 203.875 89.0628 206.05 89.0628 208.729C89.0628 211.409 91.1628 213.583 93.7503 213.583H131.25C133.838 213.583 135.938 211.409 135.938 208.729C135.938 206.05 133.838 203.875 131.25 203.875ZM133.594 223.292H91.4065L102.544 230.884C103.988 232.223 106.107 233 108.31 233H116.7C118.894 233 121.022 232.223 122.466 230.884L133.594 223.292ZM168.75 89.3264C168.75 123.975 138.619 147.411 138.619 174.75H119.972C119.944 156.712 128.128 141.848 136.107 127.5C143.241 114.636 150 102.481 150 89.3264C150 64.1624 130.547 52.7065 112.472 52.7065C94.4252 52.7065 75.0002 64.1624 75.0002 89.3264C75.0002 102.481 81.7596 114.636 88.894 127.5C96.8721 141.848 105.066 156.712 105.019 174.75H86.3815C86.3815 147.411 56.2502 123.975 56.2502 89.3264C56.2502 53.1822 84.3565 33.2899 112.472 33.2899C140.607 33.2899 168.75 53.2017 168.75 89.3264ZM206.25 82.6179V95.9377H182.457C182.644 93.7728 182.813 91.5884 182.813 89.3264C182.813 87.0255 182.653 84.8217 182.485 82.6276H206.25V82.6179ZM106.425 18.9992V0H119.278V19.0672C117.01 18.8536 114.741 18.7274 112.472 18.7274C110.457 18.7274 108.441 18.8245 106.425 18.9992ZM71.3346 31.5618L61.5846 12.7276L72.9096 6.43662L82.6315 25.2028C78.7128 26.96 74.9253 29.0959 71.3346 31.5618V31.5618ZM170.578 48.4057L188.785 34.8723L196.275 45.6971L177.019 59.9975C175.228 55.8229 173.053 51.9687 170.578 48.4057ZM142.36 25.2125L152.091 6.43662L163.416 12.7276L153.657 31.5715C150.075 29.1056 146.288 26.9795 142.36 25.2125V25.2125ZM47.9721 59.9975L28.7159 45.7068L36.2065 34.882L54.4127 48.4057C51.9377 51.959 49.7721 55.8132 47.9721 59.9975ZM176.475 120.412L198.544 129.674L193.725 142.013L170.991 132.48C172.96 128.626 174.816 124.597 176.475 120.412V120.412ZM53.5877 131.626L31.5002 141.916L26.2315 129.771L48.169 119.558C49.7909 123.762 51.6471 127.762 53.5877 131.626V131.626ZM42.544 95.9377H18.7502V82.6179H42.5159C42.3471 84.812 42.1877 87.0255 42.1877 89.3264C42.1877 91.5884 42.3565 93.7728 42.544 95.9377V95.9377Z" fill="#B4877B"/>
</g>
<defs>
<clipPath id="clip0">
<rect width="225" height="233" fill="white"/>
</clipPath>
</defs>
</svg>
